<svg xmlns="http://www.w3.org/2000/svg" width="11" height="14" viewBox="0 0 11 14">
  <g id="Group_6040" data-name="Group 6040" transform="translate(3017.501 -805.554)">
    <path id="Path_1" data-name="Path 1" d="M-3007.127,819.554h-9.748a.62.62,0,0,1-.626-.613V806.167a.62.62,0,0,1,.626-.613h6.081a.62.62,0,0,1,.627.613v2.939h3.04a.62.62,0,0,1,.626.613v9.223A.619.619,0,0,1-3007.127,819.554Zm-3.735-3.06h.657c.51,0,1.02,0,1.529,0a.385.385,0,0,0,.379-.534.423.423,0,0,0-.434-.239q-2.13,0-4.26,0a.907.907,0,0,0-.124.005.387.387,0,0,0-.34.4.39.39,0,0,0,.417.364Zm0-3.563q-1.088,0-2.175,0a.386.386,0,0,0-.417.409.385.385,0,0,0,.387.36c.162.008.325,0,.487,0q1.908,0,3.818,0a.758.758,0,0,0,.275-.044.367.367,0,0,0,.215-.42.393.393,0,0,0-.4-.305Q-3009.769,812.93-3010.863,812.931Zm0-2.022h1.688c.178,0,.356.006.533,0a.38.38,0,0,0,.343-.533.417.417,0,0,0-.424-.236q-2.142,0-4.283,0a.732.732,0,0,0-.124.008.378.378,0,0,0-.328.4.393.393,0,0,0,.431.363C-3012.3,810.91-3011.581,810.909-3010.86,810.909Zm-4.133-.591a4.433,4.433,0,0,0-.3-.33.389.389,0,0,0-.532.019.367.367,0,0,0-.017.521c.189.2.385.386.585.571a.377.377,0,0,0,.49.027q.709-.542,1.409-1.1a.363.363,0,0,0,.1-.453.4.4,0,0,0-.614-.123C-3014.24,809.73-3014.6,810.011-3014.993,810.318Zm.034,5.538a.153.153,0,0,1-.024-.01,2.777,2.777,0,0,0-.277-.261.661.661,0,0,0-.279-.123.363.363,0,0,0-.368.225.363.363,0,0,0,.083.429c.167.17.341.334.513.5a.405.405,0,0,0,.594.036c.173-.132.343-.266.515-.4.266-.207.533-.413.8-.621a.379.379,0,0,0,.036-.619.4.4,0,0,0-.519.009Q-3014.423,815.437-3014.959,815.855Zm-.019-2.767c-.1-.105-.188-.207-.287-.3a.4.4,0,0,0-.567.006.372.372,0,0,0,.019.545c.179.18.363.356.547.53a.388.388,0,0,0,.488.041c.066-.043.126-.094.188-.142q.611-.476,1.221-.953a.358.358,0,0,0,.134-.377.364.364,0,0,0-.26-.282.425.425,0,0,0-.411.092C-3014.255,812.528-3014.607,812.8-3014.978,813.089Z" transform="translate(0)" fill="#77787b"/>
    <path id="Path_2" data-name="Path 2" d="M-2657.419,832.8h-2.261v-2.3Z" transform="translate(-349.699 -24.383)" fill="#77787b"/>
  </g>
</svg>
