<svg xmlns="http://www.w3.org/2000/svg" width="11.159" height="11.455" viewBox="0 0 11.159 11.455">
  <path id="Icon_awesome-wifi" data-name="Icon awesome-wifi" d="M10.913,2.06a8.141,8.141,0,0,0-10.825,0,.262.262,0,0,0-.006.385l.589.569a.284.284,0,0,0,.385.006,6.718,6.718,0,0,1,8.89,0,.284.284,0,0,0,.385-.006l.589-.569a.262.262,0,0,0-.006-.385Zm-1.929,1.9a5.377,5.377,0,0,0-6.967,0,.261.261,0,0,0-.01.388l.592.57a.286.286,0,0,0,.379.013,3.946,3.946,0,0,1,5.044,0A.286.286,0,0,0,8.4,4.921l.592-.57A.261.261,0,0,0,8.983,3.963Z" transform="translate(3.657) rotate(47)" fill="#2b68a0"/>
</svg>
