<svg id="stack-of-square-papers" xmlns="http://www.w3.org/2000/svg" width="14" height="11" viewBox="0 0 14 11">
  <g id="Group_643" data-name="Group 643">
    <path id="Path_123" data-name="Path 123" d="M.227,38.834l6.627,2.974A.352.352,0,0,0,7,41.84a.361.361,0,0,0,.147-.032l6.627-2.974a.4.4,0,0,0-.014-.725L7.133,35.467a.355.355,0,0,0-.265,0L.241,38.109a.4.4,0,0,0-.014.725ZM7,36.251,12.631,38.5,7,41.023,1.369,38.5Z" transform="translate(0 -35.441)" fill="#77787b"/>
    <path id="Path_124" data-name="Path 124" d="M.228,125.942,7,128.981l6.773-3.039a.4.4,0,0,0,.2-.514.367.367,0,0,0-.49-.206L7,128.13l-6.48-2.908a.367.367,0,0,0-.49.206A.4.4,0,0,0,.228,125.942Z" transform="translate(-0.001 -121.004)" fill="#77787b"/>
    <path id="Path_125" data-name="Path 125" d="M.228,158.34,7,161.38l6.773-3.039a.4.4,0,0,0,.2-.513.366.366,0,0,0-.49-.206L7,160.529l-6.48-2.908a.367.367,0,0,0-.49.206A.4.4,0,0,0,.228,158.34Z" transform="translate(-0.001 -151.944)" fill="#77787b"/>
    <path id="Path_126" data-name="Path 126" d="M.228,190.744,7,193.783l6.773-3.039a.4.4,0,0,0,.2-.513.367.367,0,0,0-.49-.206L7,192.933l-6.48-2.908a.367.367,0,0,0-.49.206A.4.4,0,0,0,.228,190.744Z" transform="translate(-0.001 -182.783)" fill="#77787b"/>
  </g>
  <path id="Path_2213" data-name="Path 2213" d="M3.2,3.637,8.077,1.563l4.89,2.074L8.077,5.785Z" transform="translate(-1.062 -0.519)" fill="#77787b"/>
</svg>
